<svg xmlns="http://www.w3.org/2000/svg" width="572" height="306.299" viewBox="0 0 572 306.299"><defs><style>.a{fill:#535b83;}.b{fill:#b7d0e3;}.c{fill:#e1eaef;}.d{fill:#ebf0f3;}.e{fill:#ee2e6c;}.f{fill:#2f3451;}.g{fill:#3b4062;}.h{fill:#25273a;}.i{fill:#926ecc;}.j{fill:#cee0ea;}.k{fill:rgba(59,64,98,0.2);}.l{fill:#a1bfcf;}.m{fill:#d7e8ef;}</style></defs><g transform="translate(-845.448 -244.196)"><g transform="translate(845.448 304.592)"><path class="a" d="M969.423,519.784h0a7.149,7.149,0,0,0,6.841-9.235l-13.014-42.667H941.411l21.495,47.69A7.151,7.151,0,0,0,969.423,519.784Z" transform="translate(-832.272 -273.881)"/><path class="a" d="M898.835,519.784h0a7.151,7.151,0,0,1-6.841-9.235l13.018-42.667h21.835l-21.495,47.69A7.141,7.141,0,0,1,898.835,519.784Z" transform="translate(-839.1 -273.881)"/><path class="a" d="M1324.67,519.784h0a7.147,7.147,0,0,0,6.838-9.235l-13.014-42.667h-21.836l21.495,47.69A7.149,7.149,0,0,0,1324.67,519.784Z" transform="translate(-783.498 -273.881)"/><path class="a" d="M1254.081,519.784h0a7.147,7.147,0,0,1-6.838-9.235l13.014-42.667h21.836l-21.495,47.69A7.149,7.149,0,0,1,1254.081,519.784Z" transform="translate(-790.326 -273.881)"/><path class="b" d="M1275.417,376.5s59.035,7.87,71.975,22.737c9.349,10.743,10.886,47.056,11.022,66.375a12.265,12.265,0,0,1-12.276,12.328H1292.1Z" transform="translate(-786.414 -286.427)"/><path class="b" d="M882.732,488.812,845.9,320.771a19.33,19.33,0,0,1,18.881-23.47h106.48c8.869,0,309.757,6.039,311.906,14.642l44.219,176.869Z" transform="translate(-845.448 -297.301)"/><path class="c" d="M914.839,488.812l-36.83-168.04a19.33,19.33,0,0,1,18.881-23.47h399.631a19.328,19.328,0,0,1,18.754,14.642L1359.5,488.812Z" transform="translate(-841.04 -297.301)"/><path class="b" d="M886.117,459.982v24.656h77.391v-29.9Z" transform="translate(-839.864 -275.686)"/><path class="c" d="M937.978,459.982v24.656h443.093v-29.9Z" transform="translate(-832.744 -275.686)"/><path class="c" d="M1254.693,376.5s59.037,7.87,71.977,22.737,11.03,52.579,11.03,52.579l-66.326,26.124Z" transform="translate(-789.26 -286.427)"/><rect class="d" width="438.256" height="33.011" transform="translate(110.071 158.5)"/><path class="b" d="M932.292,421.1h399.551L1382.83,438.8H925.169Z" transform="translate(-834.502 -280.304)"/><g transform="translate(119.371 51.068)"><path class="b" d="M975.705,354.852A12.648,12.648,0,1,0,963.059,367.5,12.647,12.647,0,0,0,975.705,354.852Z" transform="translate(-950.408 -342.204)"/><circle class="b" cx="12.648" cy="12.648" r="12.648" transform="translate(131.781)"/><path class="b" d="M1207.449,354.852A12.65,12.65,0,1,0,1194.8,367.5,12.648,12.648,0,0,0,1207.449,354.852Z" transform="translate(-918.591 -342.204)"/></g></g><g transform="translate(916.992 244.196)"><path class="e" d="M1111.748,414.772c.681,1.6,8.065,15.515,9.827,17.255,3.195,3.176,37.217-1.935,37.983-4.937.785-3.037-17.145-5.362-20.685-6.078-2.076-.43-8.695-11.059-9.441-12.3A63.878,63.878,0,0,0,1111.748,414.772Z" transform="translate(-880.43 -221.608)"/><path class="f" d="M1023.152,386.46c16.891,9.669,29.649,14.042,45.817,24.923,17.525,11.795,43.358,23.688,42.913,22.172,6.554,3.253,44.137-15.972,39.928-21.239-16.217-18.174-51.218-44.512-72.239-56.4C1056.37,342.784,1005.336,376.261,1023.152,386.46Z" transform="translate(-893.102 -229.271)"/><path class="f" d="M1080.827,352.637c-26.568-2.17-37.754,12.472-61.184,19.174-12.985,3.714-26.957,5.688-40.11,2.626-9.3-2.162-19.4-5.628-28.878-2.432-17.839,6.015-31.989,21.99-18.446,44.471,8.869,14.726,27.453,17.442,43.87,20.111,20.26,3.3,90-29.915,109.244-26.829C1106.182,413.1,1104.9,354.6,1080.827,352.637Z" transform="translate(-905.82 -229.337)"/><path class="e" d="M1085.691,427.5c.141,1.726,2.762,17.264,3.885,19.471,2.029,4.023,35.925,9.9,37.6,7.3,1.7-2.637-14.578-10.5-17.713-12.293-1.834-1.063-4.761-13.235-5.08-14.646A63.8,63.8,0,0,0,1085.691,427.5Z" transform="translate(-884.007 -219.136)"/><path class="g" d="M1106.895,449.691c-10.284,1.523-20.959,1.652-23.4-.786-.08,1.547-19.939-17-32.9-33.477-.261-.366-.55-.732-.84-1.1a163.91,163.91,0,0,0-11.437-13.273c-7.739-8.16-15.453-15.059-24.19-24.818-1.783-2-2.334-4.015-1.888-5.956,2.965-12.854,49.531-22.43,65.06-5.247,16.216,17.918,41.11,53.965,50.766,76.315C1129.3,444.68,1118.334,448.013,1106.895,449.691Z" transform="translate(-894.112 -228.881)"/><path class="g" d="M1069.548,357.71c-19.256-1.575-30.431,5.664-44.047,12.328a102.355,102.355,0,0,1-17.157,6.848c-12.983,3.7-26.942,5.667-40.113,2.624-9.287-2.178-19.386-5.642-28.858-2.439-6.976,2.334-13.406,6.219-17.839,11.437-6.845,8.08-8.866,19.36-.63,33.032,8.895,14.715,25.528,20.331,43.892,20.121,17.759-.239,72.3-22.538,99.06-26.473a35.553,35.553,0,0,1,10.179-.366,9.429,9.429,0,0,0,9.13-3.569C1093.683,398.87,1089.249,359.309,1069.548,357.71Z" transform="translate(-907.371 -228.641)"/><path class="f" d="M1120.074,445.653a101.364,101.364,0,0,1-23.952-20.278c-4.722-5.536-8.287-12.251-12.958-17.867a37.914,37.914,0,0,0-3.727-3.96c-7.817-7.189-17.916-8.053-27.859-6.479a102.289,102.289,0,0,0-17.341,4.616c-18.444,6.323-35.993,15.556-55.171,19.728-10.23,2.23-25.1,4.67-33.869-2.7-7.425-6.271-14.165-18.469-16.4-27.782a1.058,1.058,0,0,0-.026-1.311,12.865,12.865,0,0,0-7.24-4.855c-6.845,8.08-8.866,19.36-.63,33.032,8.895,14.716,25.528,20.331,43.892,20.121,17.759-.239,72.3-22.538,99.06-26.473,12.958,16.476,32.818,35.024,32.9,33.478,2.442,2.438,13.118,2.309,23.4.786C1120.128,445.679,1120.1,445.679,1120.074,445.653Z" transform="translate(-907.371 -224.897)"/><g transform="translate(54.829 58.766)"><g transform="translate(95.641 4.737)"><path class="e" d="M1071.734,303.249c.061-.077.136-.135.2-.215.86-1.176-1.3-2.869-2.168-1.689-.061.08-.149.131-.21.208a1.434,1.434,0,0,0-2.354-.713c-.351.245-5.26,3.764-10.486,4.074a15.307,15.307,0,0,1,3.6-2.651c1.337-.579.533-2.722-.8-2.127a21.9,21.9,0,0,0-2.129,1.092c-5.888,3.24-10.942,8.595-14.682,14.155a28.512,28.512,0,0,0-1.922,2.692,1.118,1.118,0,0,0,.1,1.141,34.621,34.621,0,0,0,5.626,5.569,1.152,1.152,0,0,0,.487.207,1.131,1.131,0,0,0,2.127.674,89.069,89.069,0,0,1,5.16-8.831c6.21-1.763,12.194-3.569,17.444-7.338,1.058-.761.1-2.6-.955-2.328a.345.345,0,0,1-.036-.02c.016-.01.029-.026.043-.036a16.553,16.553,0,0,0,2.035-1.765C1073.487,304.556,1072.534,303.339,1071.734,303.249Z" transform="translate(-1040.66 -300.033)"/><path class="h" d="M1056.014,307.556a.333.333,0,0,1-.322-.266.329.329,0,0,1,.26-.384c5.706-1.1,11.271-5.7,11.326-5.747a.328.328,0,0,1,.421.5c-.233.194-5.755,4.762-11.624,5.889A.373.373,0,0,1,1056.014,307.556Z" transform="translate(-1038.597 -299.889)"/><path class="h" d="M1057.134,310.061a.328.328,0,0,1-.047-.653c4.771-.687,12.149-6.7,12.224-6.761a.328.328,0,0,1,.415.507c-.307.254-7.6,6.193-12.547,6.9A.3.3,0,0,1,1057.134,310.061Z" transform="translate(-1038.443 -299.684)"/><path class="h" d="M1058.251,311.722a.328.328,0,0,1-.072-.648c3.589-.8,9.974-4.961,10.038-5a.328.328,0,1,1,.359.549c-.267.174-6.549,4.271-10.254,5.093A.4.4,0,0,1,1058.251,311.722Z" transform="translate(-1038.29 -299.211)"/></g><path class="i" d="M958.181,296.963c6.21-6.684,53.2,18.6,67.725,38.5s-.049,45.8-6.853,43.254S945.417,310.7,958.181,296.963Z" transform="translate(-956.565 -295.868)"/><path class="i" d="M1050.068,312.087c-19.015-7.465-38.434,22.383-47.893,32.29s8.281,32.706,12.831,32.181S1062,346.122,1057.5,318.812C1057.5,318.812,1054.158,313.693,1050.068,312.087Z" transform="translate(-950.678 -293.804)"/><path class="i" d="M968.47,324.365s32.906,44.823,48.948,50.437c4.561,1.6,25.162-13.656,33.251-26.665,0,0-24.694,20.581-33.979,15.846S968.47,324.365,968.47,324.365Z" transform="translate(-954.931 -291.955)"/><g transform="translate(84.862 19.438)"><path class="j" d="M1031.51,319.871a.328.328,0,0,1-.251-.538c3.712-4.424,14.394-6.289,14.844-6.367a.315.315,0,0,1,.38.267.328.328,0,0,1-.265.379c-.113.018-10.9,1.9-14.456,6.141A.333.333,0,0,1,1031.51,319.871Z" transform="translate(-1031.183 -312.959)"/><path class="j" d="M1038.363,322.17a.328.328,0,0,1-.29-.481c2.316-4.346,8.716-7.583,8.987-7.72a.32.32,0,0,1,.439.147.323.323,0,0,1-.147.438c-.064.033-6.484,3.285-8.7,7.442A.328.328,0,0,1,1038.363,322.17Z" transform="translate(-1030.242 -312.826)"/><path class="j" d="M1044.458,322.254a.328.328,0,0,1-.227-.563c1.755-1.717,3.135-6.669,3.151-6.718a.321.321,0,0,1,.4-.227.325.325,0,0,1,.229.4c-.057.209-1.44,5.171-3.325,7.014A.326.326,0,0,1,1044.458,322.254Z" transform="translate(-1029.405 -312.716)"/><path class="j" d="M1046.573,331.089a.386.386,0,0,1-.094-.012.333.333,0,0,1-.221-.411,57.312,57.312,0,0,0,2.268-14.605.328.328,0,0,1,.656,0,58.111,58.111,0,0,1-2.294,14.8A.331.331,0,0,1,1046.573,331.089Z" transform="translate(-1029.115 -312.579)"/></g></g><path class="k" d="M969.448,298.608s12.963,6.735,14.029,20.836c.411,5.424,8.255,36.564,8.255,36.564l-10.658-7.819Z" transform="translate(-899.967 -236.725)"/><path class="h" d="M958.234,285.635c-4.611-1.11-7.792-3.244-9.458-6.346a13,13,0,0,1-.629-9.76l.825.3c-.017.044-1.695,4.82.583,9.049,1.543,2.868,4.532,4.851,8.885,5.9Z" transform="translate(-902.985 -240.718)"/><path class="i" d="M908.355,403.081S926.412,302.156,950.438,295.7c19.629-5.271,36.11,2.466,36.789,22.536.624,18.531,17.421,48.306,19.763,57.822l2.344,9.516S953.171,418.483,908.355,403.081Z" transform="translate(-908.355 -237.345)"/><path class="e" d="M969.582,284.187s-4.879,12.519-5.511,15.639c-.192.955-14.6,1.127-16.357-.821,1.625-3.854,5.02-8.726,6.778-15.57S969.582,284.187,969.582,284.187Z" transform="translate(-902.951 -239.201)"/><path class="e" d="M953.094,274.965s2.062,19.2,14.031,20.336,6.133-25.571,4.378-26.406S958.206,264.762,953.094,274.965Z" transform="translate(-902.212 -240.966)"/><path class="h" d="M977.225,273.031a6.082,6.082,0,0,0-.544-2.738,4.2,4.2,0,0,0-1.257-4.525,8.513,8.513,0,0,0-5.01-1.9c-8.761-5.1-21.046,1.131-21.035,11.987.007,3.49,2.6,10.087,7.252,7.489,2.312-1.294,3.446-5.133,4.349-7.4a25.955,25.955,0,0,0,1.412-4.741,2.366,2.366,0,0,0,1.5.464c1.532-.049,1.265-.484,1.484.91a3.013,3.013,0,0,0,2.982,2.557c1.229-.048.966-.251,1.965.629C972.982,278.1,977.025,276.882,977.225,273.031Z" transform="translate(-902.723 -241.743)"/><path class="h" d="M961.342,250.4c-7.6-5.167-20.71-4.346-26.543,3.13-4.594,5.879-3.5,16.224,3.281,20.178,6.9,4.023,16.151-.326,22.045-5.274a2.272,2.272,0,0,0,2.244-.2C969.264,263.713,967.635,254.67,961.342,250.4Z" transform="translate(-905.107 -243.797)"/><path class="e" d="M959.282,277.883s-1.6-3.614-4.948-3.325-4.609,8.135.955,9.183S959.282,277.883,959.282,277.883Z" transform="translate(-902.436 -240.03)"/><path class="h" d="M965.617,264.8l-.694-.536c1.848-2.392,1.8-6.878-.124-10.908a14.14,14.14,0,0,0-12.715-8.273c-.2,0-.391-.007-.58-.007-15.015,0-18.017,13.914-18.14,14.512l-.86-.172c.032-.155,3.26-15.22,19.01-15.22.2,0,.391,0,.59.007a14.909,14.909,0,0,1,13.488,8.774C967.65,257.3,967.665,262.157,965.617,264.8Z" transform="translate(-905.039 -244.196)"/><path class="k" d="M950.946,299.552s24.829,35.873,25.258,65.686,33.131,19.591,33.131,19.591-56.693,31.973-100.98,17.5C908.355,402.332,923.056,316.435,950.946,299.552Z" transform="translate(-908.355 -236.596)"/><g transform="translate(63.603 75.384)"><g transform="translate(0 49.584)"><rect class="l" width="84.827" height="3.714" transform="translate(38.733 20.497) rotate(-11.901)"/><path class="b" d="M1003.78,375.734l-38.737,2.111-.763-3.635,38.732-2.111Z" transform="translate(-964.28 -351.603)"/><path class="m" d="M964.28,376.684l93.608-22.607,28.13,3.005-83.007,17.49Z" transform="translate(-964.28 -354.077)"/></g><g transform="translate(36.728)"><path class="m" d="M1079.245,363.56l-82.671,16.5.138-52.374,81.49-17.211,3.2,1.361Z" transform="translate(-996.574 -310.479)"/><path class="b" d="M1081.023,362.974l-82.679,17.421-.072-50.347,82.9-18.372Z" transform="translate(-996.341 -310.315)"/></g></g><g transform="translate(61.894 124.733)"><path class="e" d="M1012.162,361.343a26.812,26.812,0,0,0-10.525-4.3,1.717,1.717,0,0,0-.11-.208,21.482,21.482,0,0,1,8.808.848c1.614.5,2.167-2.062.569-2.562a27,27,0,0,0-16.7.164,59.947,59.947,0,0,1-25.8,2.132,1.348,1.348,0,0,0-.607.043,1.327,1.327,0,0,0-1.256.943q-1.859,5.838-3.714,11.674a1.322,1.322,0,0,0,1.348,1.593,166.9,166.9,0,0,0,22.422-3.007,28.8,28.8,0,0,0,5.724-1.832c2.242-.968,4.645-2.559,7.169-2.685,3.033-.148,5.636,1.435,8.105,2.863,1.2.691,2.188-.728,1.732-1.734.01.007.025.012.041.023,1.107.665,2.055-.536,1.806-1.53C1012.467,364.341,1013.465,362.23,1012.162,361.343Z" transform="translate(-962.777 -353.871)"/><path class="h" d="M1001.618,358.278a.342.342,0,0,1-.165-.044,23.6,23.6,0,0,0-4.529-1.214.329.329,0,0,1,.123-.646,25.151,25.151,0,0,1,4.735,1.291.329.329,0,0,1-.164.613Z" transform="translate(-958.126 -353.528)"/><path class="h" d="M1006.658,363.469a.317.317,0,0,1-.189-.061,28.986,28.986,0,0,0-10.536-4.347.327.327,0,0,1,.108-.646,29.574,29.574,0,0,1,10.807,4.46.327.327,0,0,1-.19.594Z" transform="translate(-958.263 -353.248)"/><path class="h" d="M1004.844,364.675a.322.322,0,0,1-.174-.051c-.051-.031-5.229-3.26-8.933-3.37a.328.328,0,0,1,.01-.655h.01c3.88.118,9.044,3.332,9.261,3.471a.328.328,0,0,1-.174.605Z" transform="translate(-958.296 -352.947)"/></g><path class="i" d="M945.8,298.644c9.067,1.039,16.57,53.865,9.159,77.362s-36.9,27.113-38.89,20.129S927.174,296.512,945.8,298.644Z" transform="translate(-907.323 -236.725)"/><path class="i" d="M989.549,359.081c-11.916-16.591-44.43-2.065-57.749,1.122s-10.8,31.96-6.7,33.989,55.994-.051,67.039-25.43C992.14,368.763,992.112,362.648,989.549,359.081Z" transform="translate(-906.506 -229.494)"/><path class="i" d="M926.184,327.877s-2.736,44.416,1.673,55.446,45.056,6.387,45.056,6.387-16.255,11.556-35.672,10.764c-21.592-.881-20.992-5.715-21.187-8.357S915.475,365.315,926.184,327.877Z" transform="translate(-907.307 -232.707)"/></g><g transform="translate(884.299 388.863)"><path class="d" d="M889.67,371.4s60.013,13.67,71.208,28.537,9.444,78.7,9.444,78.7h-57.28Z" transform="translate(-878.228 -371.398)"/><path class="b" d="M879.609,376.5s51.07,7.87,62.264,22.737c7.541,10.021,9.207,42.282,9.492,62.256a16.232,16.232,0,0,1-16.249,16.448H894.038Z" transform="translate(-879.609 -370.698)"/></g><g transform="translate(1226.802 402.909)"><path class="g" d="M1270.554,399.754a.49.49,0,0,0-.491-.2.645.645,0,0,0-.277-.076c-16.822-1.067-26.684-11.378-42.94-14.9-7.054-1.525-20.073-.943-26.99,1.618-6.5,2.409-11.811,8.129-15.208,14.017-3.559,6.158-5.017,13.816-2.047,20.518,2.785,6.282,9.123,9.841,15.6,11.226,8.588,1.837,17.8,1.049,26.524,1.082,8.439.031,17.224.73,25.612-.351,8.5-1.1,14.393-5.551,18.164-13.194C1271.312,413.817,1275.135,405.473,1270.554,399.754Z" transform="translate(-1180.731 -383.749)"/><path class="g" d="M1270.9,399.606c-2.984-3.395-7.862-4.588-12.2-4.788-4.376-.2-11.175-.059-14.993,2.391-3.774,2.418-3.827,7.406-3.51,11.392.313,3.9.886,9.285,3.53,12.559.01.018.01.033.021.049,2.763,3.833,7.043,5,11.58,5.287,4.853.3,10.228.018,14.3-2.939C1276.439,418.616,1276.183,405.608,1270.9,399.606Z" transform="translate(-1172.62 -382.238)"/><path class="g" d="M1249.191,398.292c-3.328-2.616-7.694-3.62-10.66-6.71a.638.638,0,0,0-1.057.615,19.369,19.369,0,0,0,2.885,7.164c1.122,1.675,2.749,3.891,4.608,4.76a.645.645,0,0,0,.638,0c1.556-1.109,2.691-3.464,3.81-5A.532.532,0,0,0,1249.191,398.292Z" transform="translate(-1172.979 -382.7)"/><path class="g" d="M1274.555,392.137a99.257,99.257,0,0,1-11.564,5.5c-.746.3-.423,1.522.336,1.219.358-.143.71-.3,1.066-.444q2.26,2.383,4.522,4.765a.644.644,0,0,0,.894,0,20.675,20.675,0,0,0,5.677-10.327A.642.642,0,0,0,1274.555,392.137Z" transform="translate(-1169.532 -382.608)"/><path class="f" d="M1242.932,406.156a.927.927,0,0,1-.395-.088c-2.4-1.121-5.019-13.366-4.982-14.364a1.051,1.051,0,0,1,.612-.9.974.974,0,0,1,1.012.235,20.2,20.2,0,0,0,5.7,3.73,28.968,28.968,0,0,1,4.865,2.892.916.916,0,1,1-1.133,1.44,26.831,26.831,0,0,0-4.563-2.7,32.7,32.7,0,0,1-4.266-2.446c.789,3.492,2.573,9.764,3.558,10.468a.9.9,0,0,1,.428,1.209A.919.919,0,0,1,1242.932,406.156Z" transform="translate(-1172.966 -382.788)"/><path class="f" d="M1269.868,404.194a.914.914,0,0,1-.646-1.563c1.843-1.837,3.49-6.266,4.189-8.695a100.467,100.467,0,0,1-10.022,4.652.915.915,0,0,1-.677-1.7,98.7,98.7,0,0,0,11.457-5.45.971.971,0,0,1,1.223.257c.917,1.221-2.546,9.912-4.878,12.233A.9.9,0,0,1,1269.868,404.194Z" transform="translate(-1169.592 -382.709)"/><path class="f" d="M1255.9,428.271c-3.8-4.549-49.794-6.177-68.066-20.88-2.731-2.2-1.816,2.319.937,4.538,19.758,15.894,47.54,19.332,71.448,18.2C1263.744,429.963,1258.179,430.99,1255.9,428.271Z" transform="translate(-1180.018 -380.583)"/><path class="h" d="M1254.74,406.417a9,9,0,0,0-4.755-1.016c-1.237.139-2.941.439-3.655,1.55-.641.994.945,1.912,1.58.922.349-.543,2.182-.681,2.767-.689a7.468,7.468,0,0,1,3.141.812C1254.88,408.484,1255.811,406.906,1254.74,406.417Z" transform="translate(-1171.782 -380.781)"/><path class="h" d="M1268.571,405.862a9.046,9.046,0,0,0-4.755-1.014c-1.237.141-2.941.439-3.655,1.55-.64.994.945,1.914,1.581.926.348-.546,2.18-.682,2.767-.693a7.484,7.484,0,0,1,3.14.812C1268.714,407.93,1269.644,406.352,1268.571,405.862Z" transform="translate(-1169.883 -380.857)"/><path class="h" d="M1260.774,410.043a14.979,14.979,0,0,1-2.788.666.939.939,0,0,0-.658.391.872.872,0,0,0-.035,1.282c.614.624,1.986,1.477,2.894,1.119a3.657,3.657,0,0,0,1.159-1.117,2.111,2.111,0,0,0,.589-1.458A.926.926,0,0,0,1260.774,410.043Z" transform="translate(-1170.293 -380.144)"/><path class="f" d="M1272.333,419.676c-7.512-1.576-12.39-.088-19.937.686-1.665.169-5.487,3.251-3.808,3.08,7.269-.746,15.823-2.751,23.047-1.237C1273.282,422.55,1273.988,420.024,1272.333,419.676Z" transform="translate(-1171.509 -378.911)"/><path class="g" d="M1278.553,420.7c-1.217-1.43-2.718-1.478-4.495-1.407a82.155,82.155,0,0,0-9.776,1.272.967.967,0,0,0-.361.007c-1.243.284-17.476,1.333-18.106,2.657-.618,1.3.235,3.931,1.1,4.973,1.179,1.438,16.453.53,18.206.4,3.976-.3,8.057-.428,12.018-.8C1280.889,427.453,1280.612,423.112,1278.553,420.7Z" transform="translate(-1171.861 -378.872)"/><path class="g" d="M1272.949,439.879c-.579-5.614-6.056-9.549-11.021-11.142-7.926-2.546-16.937-1.273-25.148-2.09-9.561-.953-19.051-2.264-28.627-3.082-5.1-.436-10-1.489-13.676-5.328a28.975,28.975,0,0,1-7.388-12.715.646.646,0,0,0-.079-.169.554.554,0,0,0-.705-.458c-6.1,1.544-6.2,8.885-4.816,13.885,1.716,6.228,6.077,10.463,12.028,12.721,15.513,5.884,32.786,6.858,49.205,6.766a83.716,83.716,0,0,1,10.762.313c4.781.587,7.935,2.338,11.673,5.17,1.649,1.25,3.735,2.5,5.784,1.291C1272.677,444.014,1273.139,441.734,1272.949,439.879Z" transform="translate(-1180.764 -380.849)"/><path class="f" d="M1240.8,420.643s-3.551-12.787.922-18.574l-1.845-3.548S1233.9,413.593,1240.8,420.643Z" transform="translate(-1172.977 -381.721)"/></g></g></svg>